<svg id="ic_kakao" xmlns="http://www.w3.org/2000/svg" xmlns:xlink="http://www.w3.org/1999/xlink" width="30" height="30" viewBox="0 0 30 30">
  <!-- <defs>
    <clipPath id="clip-path">
      <rect id="사각형_232" data-name="사각형 232" width="27.649" height="25.778" fill="#000" />
    </clipPath>
  </defs> -->
  <!-- <rect id="사각형_234" data-name="사각형 234" width="30" height="30" fill="#000"/> -->
  <!-- <g id="그룹_10" data-name="그룹 10" transform="translate(1 2)" clip-path="url(#clip-path)"> -->
  <g id="그룹_10" data-name="그룹 10">
    <path id="패스_7" data-name="패스 7" d="M13.825,0C6.189,0,0,4.921,0,10.991c0,3.763,2.378,7.083,6,9.064L5,25.413a.307.307,0,0,0,.471.313l5.938-3.912s1.588.167,2.411.167c7.635,0,13.825-4.921,13.825-10.991S21.459,0,13.825,0" fill="current"/>
    <path id="패스_8" data-name="패스 8" d="M30.775,58.087H26.79a.683.683,0,0,0,0,1.366h1.3v4.81a.671.671,0,0,0,.2.471.655.655,0,0,0,.466.2h.145a.656.656,0,0,0,.465-.194.673.673,0,0,0,.2-.471v-4.81h1.224a.683.683,0,0,0,0-1.366" transform="translate(-22.548 -50.16)" fill="currentColor" fill-opacity="1"/>
    <path id="패스_11" data-name="패스 11" d="M63.589,63.442,61.6,57.968l-.007-.005a.975.975,0,0,0-.93-.576,1.137,1.137,0,0,0-.319.045,1.04,1.04,0,0,0-.276.125.915.915,0,0,0-.214.191.812.812,0,0,0-.1.162c-.024.051-.122.331-.154.417l-.034.091-.04.109-.047.126-.052.141-.057.154-.062.167-.066.178-.069.188-.073.2-.075.2-.077.209-.079.214-.08.217-.081.218-.081.219-.081.218-.08.216-.078.212-.077.207-.074.2-.072.193-.068.184-.064.174-.06.162-.055.149-.05.135-.044.119-.038.1-.031.084-.024.064-.016.043-.008.023a.666.666,0,0,0,.4.846.657.657,0,0,0,.84-.406l.338-.972h2.717l.338.972a.657.657,0,0,0,.84.406.665.665,0,0,0,.4-.846M59.722,61.67l.913-2.626.03,0,.912,2.623Z" transform="translate(-49.802 -49.554)" fill="currentColor" fill-opacity="1"/>
    <path id="패스_9" data-name="패스 9" d="M107.572,63.039H105.72V58.127a.736.736,0,1,0-1.471,0v5.532a.618.618,0,0,0,.615.62h2.707a.62.62,0,0,0,0-1.24" transform="translate(-90.022 -49.554)" fill="currentColor" fill-opacity="1"/>
    <path id="패스_10" data-name="패스 10" d="M141.194,63.264l-2.065-2.733L141,58.65a.656.656,0,0,0,0-.922.644.644,0,0,0-.915,0l-2.31,2.327v-1.93a.735.735,0,1,0-1.471,0v5.457a.735.735,0,1,0,1.471,0V61.9l.42-.423,1.953,2.583a.653.653,0,0,0,.92.131.665.665,0,0,0,.13-.928" transform="translate(-117.699 -49.554)" fill="currentColor" fill-opacity="1"/>
  </g>
</svg>
